# Blender v2.79 (sub 0) OBJ File: 'PyramidFinalPräsOhneParent.blend'
# www.blender.org
mtllib PyramidBetterSmall.mtl
o Cube.014_Cube.003
v -0.009831 0.981893 1.010822
v -0.009831 1.986301 1.010822
v -0.009831 0.981893 -0.010822
v -0.009831 1.986301 -0.010822
v 1.009831 0.981893 1.010822
v 1.009831 1.986301 1.010822
v 1.009831 0.981893 -0.010822
v 1.009831 1.986301 -0.010822
vt 0.000000 0.000000
vt 1.000000 0.000000
vt 1.000000 1.000000
vt 0.000000 1.000000
vt 0.000000 0.000000
vt 1.000000 0.000000
vt 1.000000 1.000000
vt 0.000000 1.000000
vt 0.000000 0.000000
vt 1.000000 0.000000
vt 1.000000 1.000000
vt 0.000000 1.000000
vt 0.000000 0.000000
vt 1.000000 0.000000
vt 1.000000 1.000000
vt 0.000000 1.000000
vt 1.000000 0.000000
vt 1.000000 1.000000
vt 0.000000 0.000000
vt 0.000000 1.000000
vn -1.0000 0.0000 0.0000
vn 0.0000 0.0000 -1.0000
vn 1.0000 0.0000 0.0000
vn 0.0000 0.0000 1.0000
vn 0.0000 -1.0000 0.0000
vn 0.0000 1.0000 0.0000
usemtl Material.002
s off
f 1/1/1 2/2/1 4/3/1 3/4/1
f 3/5/2 4/6/2 8/7/2 7/8/2
f 7/9/3 8/10/3 6/11/3 5/12/3
f 5/13/4 6/14/4 2/15/4 1/16/4
f 3/5/5 7/17/5 5/18/5 1/16/5
f 8/19/6 4/6/6 2/15/6 6/20/6
o Cube.013_Cube.003
v -0.009831 0.981893 0.010822
v -0.009831 1.986301 0.010822
v -0.009831 0.981893 -1.010822
v -0.009831 1.986301 -1.010822
v 1.009831 0.981893 0.010822
v 1.009831 1.986301 0.010822
v 1.009831 0.981893 -1.010822
v 1.009831 1.986301 -1.010822
vt 0.000000 0.000000
vt 1.000000 0.000000
vt 1.000000 1.000000
vt 0.000000 1.000000
vt 0.000000 0.000000
vt 1.000000 0.000000
vt 1.000000 1.000000
vt 0.000000 1.000000
vt 0.000000 0.000000
vt 1.000000 0.000000
vt 1.000000 1.000000
vt 0.000000 1.000000
vt 0.000000 0.000000
vt 1.000000 0.000000
vt 1.000000 1.000000
vt 0.000000 1.000000
vt 1.000000 0.000000
vt 1.000000 1.000000
vt 0.000000 0.000000
vt 0.000000 1.000000
vn -1.0000 0.0000 0.0000
vn 0.0000 0.0000 -1.0000
vn 1.0000 0.0000 0.0000
vn 0.0000 0.0000 1.0000
vn 0.0000 -1.0000 0.0000
vn 0.0000 1.0000 0.0000
usemtl Material.002
s off
f 9/21/7 10/22/7 12/23/7 11/24/7
f 11/25/8 12/26/8 16/27/8 15/28/8
f 15/29/9 16/30/9 14/31/9 13/32/9
f 13/33/10 14/34/10 10/35/10 9/36/10
f 11/25/11 15/37/11 13/38/11 9/36/11
f 16/39/12 12/26/12 10/35/12 14/40/12
o Cube.012_Cube.003
v -1.009831 0.981893 0.010822
v -1.009831 1.986301 0.010822
v -1.009831 0.981893 -1.010822
v -1.009831 1.986301 -1.010822
v 0.009831 0.981893 0.010822
v 0.009831 1.986301 0.010822
v 0.009831 0.981893 -1.010822
v 0.009831 1.986301 -1.010822
vt 0.000000 0.000000
vt 1.000000 0.000000
vt 1.000000 1.000000
vt 0.000000 1.000000
vt 0.000000 0.000000
vt 1.000000 0.000000
vt 1.000000 1.000000
vt 0.000000 1.000000
vt 0.000000 0.000000
vt 1.000000 0.000000
vt 1.000000 1.000000
vt 0.000000 1.000000
vt 0.000000 0.000000
vt 1.000000 0.000000
vt 1.000000 1.000000
vt 0.000000 1.000000
vt 1.000000 0.000000
vt 1.000000 1.000000
vt 0.000000 0.000000
vt 0.000000 1.000000
vn -1.0000 0.0000 0.0000
vn 0.0000 0.0000 -1.0000
vn 1.0000 0.0000 0.0000
vn 0.0000 0.0000 1.0000
vn 0.0000 -1.0000 0.0000
vn 0.0000 1.0000 0.0000
usemtl Material.002
s off
f 17/41/13 18/42/13 20/43/13 19/44/13
f 19/45/14 20/46/14 24/47/14 23/48/14
f 23/49/15 24/50/15 22/51/15 21/52/15
f 21/53/16 22/54/16 18/55/16 17/56/16
f 19/45/17 23/57/17 21/58/17 17/56/17
f 24/59/18 20/46/18 18/55/18 22/60/18
o Cube.011_Cube.003
v -0.509831 -0.018107 1.510822
v -0.509831 0.986301 1.510822
v -0.509831 -0.018107 0.489178
v -0.509831 0.986301 0.489178
v 0.509831 -0.018107 1.510822
v 0.509831 0.986301 1.510822
v 0.509831 -0.018107 0.489178
v 0.509831 0.986301 0.489178
vt 0.000000 0.000000
vt 1.000000 0.000000
vt 1.000000 1.000000
vt 0.000000 1.000000
vt 0.000000 0.000000
vt 1.000000 0.000000
vt 1.000000 1.000000
vt 0.000000 1.000000
vt 0.000000 0.000000
vt 1.000000 0.000000
vt 1.000000 1.000000
vt 0.000000 1.000000
vt 0.000000 0.000000
vt 1.000000 0.000000
vt 1.000000 1.000000
vt 0.000000 1.000000
vt 1.000000 0.000000
vt 1.000000 1.000000
vt 0.000000 0.000000
vt 0.000000 1.000000
vn -1.0000 0.0000 0.0000
vn 0.0000 0.0000 -1.0000
vn 1.0000 0.0000 0.0000
vn 0.0000 0.0000 1.0000
vn 0.0000 -1.0000 0.0000
vn 0.0000 1.0000 0.0000
usemtl Material.002
s off
f 25/61/19 26/62/19 28/63/19 27/64/19
f 27/65/20 28/66/20 32/67/20 31/68/20
f 31/69/21 32/70/21 30/71/21 29/72/21
f 29/73/22 30/74/22 26/75/22 25/76/22
f 27/65/23 31/77/23 29/78/23 25/76/23
f 32/79/24 28/66/24 26/75/24 30/80/24
o Cube.010_Cube.003
v 0.490169 -0.018107 0.510822
v 0.490169 0.986301 0.510822
v 0.490169 -0.018107 -0.510822
v 0.490169 0.986301 -0.510822
v 1.509831 -0.018107 0.510822
v 1.509831 0.986301 0.510822
v 1.509831 -0.018107 -0.510822
v 1.509831 0.986301 -0.510822
vt 0.000000 0.000000
vt 1.000000 0.000000
vt 1.000000 1.000000
vt 0.000000 1.000000
vt 0.000000 0.000000
vt 1.000000 0.000000
vt 1.000000 1.000000
vt 0.000000 1.000000
vt 0.000000 0.000000
vt 1.000000 0.000000
vt 1.000000 1.000000
vt 0.000000 1.000000
vt 0.000000 0.000000
vt 1.000000 0.000000
vt 1.000000 1.000000
vt 0.000000 1.000000
vt 1.000000 0.000000
vt 1.000000 1.000000
vt 0.000000 0.000000
vt 0.000000 1.000000
vn -1.0000 0.0000 0.0000
vn 0.0000 0.0000 -1.0000
vn 1.0000 0.0000 0.0000
vn 0.0000 0.0000 1.0000
vn 0.0000 -1.0000 0.0000
vn 0.0000 1.0000 0.0000
usemtl Material.002
s off
f 33/81/25 34/82/25 36/83/25 35/84/25
f 35/85/26 36/86/26 40/87/26 39/88/26
f 39/89/27 40/90/27 38/91/27 37/92/27
f 37/93/28 38/94/28 34/95/28 33/96/28
f 35/85/29 39/97/29 37/98/29 33/96/29
f 40/99/30 36/86/30 34/95/30 38/100/30
o Cube.009_Cube.003
v -1.509831 -0.018107 0.510822
v -1.509831 0.986301 0.510822
v -1.509831 -0.018107 -0.510822
v -1.509831 0.986301 -0.510822
v -0.490169 -0.018107 0.510822
v -0.490169 0.986301 0.510822
v -0.490169 -0.018107 -0.510822
v -0.490169 0.986301 -0.510822
vt 0.000000 0.000000
vt 1.000000 0.000000
vt 1.000000 1.000000
vt 0.000000 1.000000
vt 0.000000 0.000000
vt 1.000000 0.000000
vt 1.000000 1.000000
vt 0.000000 1.000000
vt 0.000000 0.000000
vt 1.000000 0.000000
vt 1.000000 1.000000
vt 0.000000 1.000000
vt 0.000000 0.000000
vt 1.000000 0.000000
vt 1.000000 1.000000
vt 0.000000 1.000000
vt 1.000000 0.000000
vt 1.000000 1.000000
vt 0.000000 0.000000
vt 0.000000 1.000000
vn -1.0000 0.0000 0.0000
vn 0.0000 0.0000 -1.0000
vn 1.0000 0.0000 0.0000
vn 0.0000 0.0000 1.0000
vn 0.0000 -1.0000 0.0000
vn 0.0000 1.0000 0.0000
usemtl Material.002
s off
f 41/101/31 42/102/31 44/103/31 43/104/31
f 43/105/32 44/106/32 48/107/32 47/108/32
f 47/109/33 48/110/33 46/111/33 45/112/33
f 45/113/34 46/114/34 42/115/34 41/116/34
f 43/105/35 47/117/35 45/118/35 41/116/35
f 48/119/36 44/106/36 42/115/36 46/120/36
o Cube.008_Cube.003
v 0.490169 -0.018107 -0.489178
v 0.490169 0.986301 -0.489178
v 0.490169 -0.018107 -1.510822
v 0.490169 0.986301 -1.510822
v 1.509831 -0.018107 -0.489178
v 1.509831 0.986301 -0.489178
v 1.509831 -0.018107 -1.510822
v 1.509831 0.986301 -1.510822
vt 0.000000 0.000000
vt 1.000000 0.000000
vt 1.000000 1.000000
vt 0.000000 1.000000
vt 0.000000 0.000000
vt 1.000000 0.000000
vt 1.000000 1.000000
vt 0.000000 1.000000
vt 0.000000 0.000000
vt 1.000000 0.000000
vt 1.000000 1.000000
vt 0.000000 1.000000
vt 0.000000 0.000000
vt 1.000000 0.000000
vt 1.000000 1.000000
vt 0.000000 1.000000
vt 1.000000 0.000000
vt 1.000000 1.000000
vt 0.000000 0.000000
vt 0.000000 1.000000
vn -1.0000 0.0000 0.0000
vn 0.0000 0.0000 -1.0000
vn 1.0000 0.0000 0.0000
vn 0.0000 0.0000 1.0000
vn 0.0000 -1.0000 0.0000
vn 0.0000 1.0000 0.0000
usemtl Material.002
s off
f 49/121/37 50/122/37 52/123/37 51/124/37
f 51/125/38 52/126/38 56/127/38 55/128/38
f 55/129/39 56/130/39 54/131/39 53/132/39
f 53/133/40 54/134/40 50/135/40 49/136/40
f 51/125/41 55/137/41 53/138/41 49/136/41
f 56/139/42 52/126/42 50/135/42 54/140/42
o Cube.007_Cube.003
v -1.009831 0.981893 1.010822
v -1.009831 1.986301 1.010822
v -1.009831 0.981893 -0.010822
v -1.009831 1.986301 -0.010822
v 0.009831 0.981893 1.010822
v 0.009831 1.986301 1.010822
v 0.009831 0.981893 -0.010822
v 0.009831 1.986301 -0.010822
vt 0.000000 0.000000
vt 1.000000 0.000000
vt 1.000000 1.000000
vt 0.000000 1.000000
vt 0.000000 0.000000
vt 1.000000 0.000000
vt 1.000000 1.000000
vt 0.000000 1.000000
vt 0.000000 0.000000
vt 1.000000 0.000000
vt 1.000000 1.000000
vt 0.000000 1.000000
vt 0.000000 0.000000
vt 1.000000 0.000000
vt 1.000000 1.000000
vt 0.000000 1.000000
vt 1.000000 0.000000
vt 1.000000 1.000000
vt 0.000000 0.000000
vt 0.000000 1.000000
vn -1.0000 0.0000 0.0000
vn 0.0000 0.0000 -1.0000
vn 1.0000 0.0000 0.0000
vn 0.0000 0.0000 1.0000
vn 0.0000 -1.0000 0.0000
vn 0.0000 1.0000 0.0000
usemtl Material.002
s off
f 57/141/43 58/142/43 60/143/43 59/144/43
f 59/145/44 60/146/44 64/147/44 63/148/44
f 63/149/45 64/150/45 62/151/45 61/152/45
f 61/153/46 62/154/46 58/155/46 57/156/46
f 59/145/47 63/157/47 61/158/47 57/156/47
f 64/159/48 60/146/48 58/155/48 62/160/48
o Cube.006_Cube.003
v 0.490169 -0.018107 1.510822
v 0.490169 0.986301 1.510822
v 0.490169 -0.018107 0.489178
v 0.490169 0.986301 0.489178
v 1.509831 -0.018107 1.510822
v 1.509831 0.986301 1.510822
v 1.509831 -0.018107 0.489178
v 1.509831 0.986301 0.489178
vt 0.000000 0.000000
vt 1.000000 0.000000
vt 1.000000 1.000000
vt 0.000000 1.000000
vt 0.000000 0.000000
vt 1.000000 0.000000
vt 1.000000 1.000000
vt 0.000000 1.000000
vt 0.000000 0.000000
vt 1.000000 0.000000
vt 1.000000 1.000000
vt 0.000000 1.000000
vt 0.000000 0.000000
vt 1.000000 0.000000
vt 1.000000 1.000000
vt 0.000000 1.000000
vt 1.000000 0.000000
vt 1.000000 1.000000
vt 0.000000 0.000000
vt 0.000000 1.000000
vn -1.0000 0.0000 0.0000
vn 0.0000 0.0000 -1.0000
vn 1.0000 0.0000 0.0000
vn 0.0000 0.0000 1.0000
vn 0.0000 -1.0000 0.0000
vn 0.0000 1.0000 0.0000
usemtl Material.002
s off
f 65/161/49 66/162/49 68/163/49 67/164/49
f 67/165/50 68/166/50 72/167/50 71/168/50
f 71/169/51 72/170/51 70/171/51 69/172/51
f 69/173/52 70/174/52 66/175/52 65/176/52
f 67/165/53 71/177/53 69/178/53 65/176/53
f 72/179/54 68/166/54 66/175/54 70/180/54
o Cube.005_Cube.003
v -0.509831 -0.018107 -0.489178
v -0.509831 0.986301 -0.489178
v -0.509831 -0.018107 -1.510822
v -0.509831 0.986301 -1.510822
v 0.509831 -0.018107 -0.489178
v 0.509831 0.986301 -0.489178
v 0.509831 -0.018107 -1.510822
v 0.509831 0.986301 -1.510822
vt 0.000000 0.000000
vt 1.000000 0.000000
vt 1.000000 1.000000
vt 0.000000 1.000000
vt 0.000000 0.000000
vt 1.000000 0.000000
vt 1.000000 1.000000
vt 0.000000 1.000000
vt 0.000000 0.000000
vt 1.000000 0.000000
vt 1.000000 1.000000
vt 0.000000 1.000000
vt 0.000000 0.000000
vt 1.000000 0.000000
vt 1.000000 1.000000
vt 0.000000 1.000000
vt 1.000000 0.000000
vt 1.000000 1.000000
vt 0.000000 0.000000
vt 0.000000 1.000000
vn -1.0000 0.0000 0.0000
vn 0.0000 0.0000 -1.0000
vn 1.0000 0.0000 0.0000
vn 0.0000 0.0000 1.0000
vn 0.0000 -1.0000 0.0000
vn 0.0000 1.0000 0.0000
usemtl Material.002
s off
f 73/181/55 74/182/55 76/183/55 75/184/55
f 75/185/56 76/186/56 80/187/56 79/188/56
f 79/189/57 80/190/57 78/191/57 77/192/57
f 77/193/58 78/194/58 74/195/58 73/196/58
f 75/185/59 79/197/59 77/198/59 73/196/59
f 80/199/60 76/186/60 74/195/60 78/200/60
o Cube.004_Cube.003
v -1.509831 -0.018107 -0.489178
v -1.509831 0.986301 -0.489178
v -1.509831 -0.018107 -1.510822
v -1.509831 0.986301 -1.510822
v -0.490169 -0.018107 -0.489178
v -0.490169 0.986301 -0.489178
v -0.490169 -0.018107 -1.510822
v -0.490169 0.986301 -1.510822
vt 0.000000 0.000000
vt 1.000000 0.000000
vt 1.000000 1.000000
vt 0.000000 1.000000
vt 0.000000 0.000000
vt 1.000000 0.000000
vt 1.000000 1.000000
vt 0.000000 1.000000
vt 0.000000 0.000000
vt 1.000000 0.000000
vt 1.000000 1.000000
vt 0.000000 1.000000
vt 0.000000 0.000000
vt 1.000000 0.000000
vt 1.000000 1.000000
vt 0.000000 1.000000
vt 1.000000 0.000000
vt 1.000000 1.000000
vt 0.000000 0.000000
vt 0.000000 1.000000
vn -1.0000 0.0000 0.0000
vn 0.0000 0.0000 -1.0000
vn 1.0000 0.0000 0.0000
vn 0.0000 0.0000 1.0000
vn 0.0000 -1.0000 0.0000
vn 0.0000 1.0000 0.0000
usemtl Material.002
s off
f 81/201/61 82/202/61 84/203/61 83/204/61
f 83/205/62 84/206/62 88/207/62 87/208/62
f 87/209/63 88/210/63 86/211/63 85/212/63
f 85/213/64 86/214/64 82/215/64 81/216/64
f 83/205/65 87/217/65 85/218/65 81/216/65
f 88/219/66 84/206/66 82/215/66 86/220/66
o Cube.003
v -0.509831 1.981893 0.510822
v -0.509831 2.986301 0.510822
v -0.509831 1.981893 -0.510822
v -0.509831 2.986301 -0.510822
v 0.509831 1.981893 0.510822
v 0.509831 2.986301 0.510822
v 0.509831 1.981893 -0.510822
v 0.509831 2.986301 -0.510822
vt 0.000000 0.000000
vt 1.000000 0.000000
vt 1.000000 1.000000
vt 0.000000 1.000000
vt 0.000000 0.000000
vt 1.000000 0.000000
vt 1.000000 1.000000
vt 0.000000 1.000000
vt 0.000000 0.000000
vt 1.000000 0.000000
vt 1.000000 1.000000
vt 0.000000 1.000000
vt 0.000000 0.000000
vt 1.000000 0.000000
vt 1.000000 1.000000
vt 0.000000 1.000000
vt 1.000000 0.000000
vt 1.000000 1.000000
vt 0.000000 0.000000
vt 0.000000 1.000000
vn -1.0000 0.0000 0.0000
vn 0.0000 0.0000 -1.0000
vn 1.0000 0.0000 0.0000
vn 0.0000 0.0000 1.0000
vn 0.0000 -1.0000 0.0000
vn 0.0000 1.0000 0.0000
usemtl Material.002
s off
f 89/221/67 90/222/67 92/223/67 91/224/67
f 91/225/68 92/226/68 96/227/68 95/228/68
f 95/229/69 96/230/69 94/231/69 93/232/69
f 93/233/70 94/234/70 90/235/70 89/236/70
f 91/225/71 95/237/71 93/238/71 89/236/71
f 96/239/72 92/226/72 90/235/72 94/240/72
o Cube.002_Cube.003
v -1.509831 -0.018107 1.510822
v -1.509831 0.986301 1.510822
v -1.509831 -0.018107 0.489178
v -1.509831 0.986301 0.489178
v -0.490169 -0.018107 1.510822
v -0.490169 0.986301 1.510822
v -0.490169 -0.018107 0.489178
v -0.490169 0.986301 0.489178
vt 0.000000 0.000000
vt 1.000000 0.000000
vt 1.000000 1.000000
vt 0.000000 1.000000
vt 0.000000 0.000000
vt 1.000000 0.000000
vt 1.000000 1.000000
vt 0.000000 1.000000
vt 0.000000 0.000000
vt 1.000000 0.000000
vt 1.000000 1.000000
vt 0.000000 1.000000
vt 0.000000 0.000000
vt 1.000000 0.000000
vt 1.000000 1.000000
vt 0.000000 1.000000
vt 1.000000 0.000000
vt 1.000000 1.000000
vt 0.000000 0.000000
vt 0.000000 1.000000
vn -1.0000 0.0000 0.0000
vn 0.0000 0.0000 -1.0000
vn 1.0000 0.0000 0.0000
vn 0.0000 0.0000 1.0000
vn 0.0000 -1.0000 0.0000
vn 0.0000 1.0000 0.0000
usemtl Material.002
s off
f 97/241/73 98/242/73 100/243/73 99/244/73
f 99/245/74 100/246/74 104/247/74 103/248/74
f 103/249/75 104/250/75 102/251/75 101/252/75
f 101/253/76 102/254/76 98/255/76 97/256/76
f 99/245/77 103/257/77 101/258/77 97/256/77
f 104/259/78 100/246/78 98/255/78 102/260/78
